<svg id="Layer_1" data-name="Layer 1" xmlns="http://www.w3.org/2000/svg" viewBox="0 0 100 200">
  <defs>
  <style>.cls-1,.cls-4,.cls-7{fill:none;}.cls-2{clip-path:url(#clip-path);}.cls-3{clip-path:url(#clip-path-2);}.cls-4,.cls-7{stroke:#6a6a6a;stroke-miterlimit:10;}.cls-4{stroke-width:1.78px;}.cls-5{clip-path:url(#clip-path-3);}.cls-6{clip-path:url(#clip-path-4);}.cls-7{stroke-width:3.56px;}</style>
  <clipPath id="clip-path">
    <path class="cls-1" d="M-154.86,104.21a6.46,6.46,0,0,1,6.38,6.49,6.46,6.46,0,0,1-6.38,6.49,6.46,6.46,0,0,1-6.38-6.49A6.46,6.46,0,0,1-154.86,104.21Zm0,15a8.46,8.46,0,0,0,8.39-8.52,8.46,8.46,0,0,0-8.39-8.52,8.46,8.46,0,0,0-8.39,8.52A8.46,8.46,0,0,0-154.86,119.21Zm-14.59-16a1.33,1.33,0,0,1,1.31-1.34,1.33,1.33,0,0,1,1.31,1.34,1.38,1.38,0,0,1-1.31,1.34A1.29,1.29,0,0,1-169.45,103.19Zm-3.38-1.65a2.67,2.67,0,0,1,2.63-2.67h7.26a1.07,1.07,0,0,0,1-.76l.31-1.46a4,4,0,0,1,3.88-3.12H-152a4,4,0,0,1,3.88,3.12l.31,1.46a1,1,0,0,0,1,.76h7.26a2.67,2.67,0,0,1,2.63,2.67v17.93a2.94,2.94,0,0,1-2.88,2.92h-30.17a2.94,2.94,0,0,1-2.88-2.92Zm2.88,22.89h30.23a4.93,4.93,0,0,0,4.88-5V101.54a4.66,4.66,0,0,0-4.63-4.71H-146l-.19-.7A6,6,0,0,0-152,91.43h-5.76a6,6,0,0,0-5.82,4.71l-.19.7h-6.38a4.66,4.66,0,0,0-4.63,4.71v17.93A4.93,4.93,0,0,0-169.95,124.43Z"/>
  </clipPath>
  <clipPath id="clip-path-2">
    <path class="cls-1" d="M-98.78,100.79v14.28h12.67l6.39-14.28Zm-1,15.54a.31.31,0,0,1-.26-.21V99.74a.31.31,0,0,1,.26-.21h29.27c.11,0,.21.09.29.21v16.38c-.09.12-.18.21-.29.21Zm31.55-.21v-2.73h1.9A2.65,2.65,0,0,0-64,110.87V105a2.65,2.65,0,0,0-2.28-2.52h-1.9V99.74a2.3,2.3,0,0,0-2.28-2.31H-99.76A2.3,2.3,0,0,0-102,99.74v16.38a2.3,2.3,0,0,0,2.28,2.31h29.27A2.3,2.3,0,0,0-68.21,116.12Z"/></clipPath><clipPath id="clip-path-3"><rect class="cls-1" x="0.75" y="3" width="98.5" height="194" rx="13.37" ry="13.37"/></clipPath><clipPath id="clip-path-4"><rect class="cls-1" x="-964.25" y="-1259" width="1200" height="2500"/></clipPath>
</defs>
  <line class="cls-4" x1="67.77" y1="62.12" x2="93.52" y2="6.89"/>
  <line class="cls-4" x1="5.83" y1="193.15" x2="31.58" y2="137.92"/>

  <g class="cls-5">

    <g class="cls-6"><rect class="cls-7" x="0.75" y="3" width="98.5" height="194" rx="13.37" ry="13.37"/>
</g>
</g></svg>
