<svg id="Layer_1" data-name="Layer 1" xmlns="http://www.w3.org/2000/svg" viewBox="0 0 40 40"><defs><style>.cls-1{fill:none;}.cls-2{clip-path:url(#clip-path);}.cls-3{clip-path:url(#clip-path-2);}.cls-4{clip-path:url(#clip-path-3);}.cls-5{clip-path:url(#clip-path-4);}.cls-6{clip-path:url(#clip-path-5);}.cls-7{fill:#6a6a6a;}.cls-8{clip-path:url(#clip-path-6);}</style><clipPath id="clip-path"><path class="cls-1" d="M-378.53,13a6.46,6.46,0,0,1,6.38,6.49A6.46,6.46,0,0,1-378.53,26a6.46,6.46,0,0,1-6.38-6.49A6.46,6.46,0,0,1-378.53,13Zm0,15a8.46,8.46,0,0,0,8.39-8.52A8.46,8.46,0,0,0-378.53,11a8.46,8.46,0,0,0-8.39,8.52A8.46,8.46,0,0,0-378.53,28Zm-14.59-16a1.33,1.33,0,0,1,1.31-1.34A1.33,1.33,0,0,1-390.49,12a1.38,1.38,0,0,1-1.31,1.34A1.29,1.29,0,0,1-393.12,12Zm-3.38-1.65a2.67,2.67,0,0,1,2.63-2.67h7.26a1.07,1.07,0,0,0,1-.76l.31-1.46a4,4,0,0,1,3.88-3.12h5.76a4,4,0,0,1,3.88,3.12l.31,1.46a1,1,0,0,0,1,.76h7.26a2.67,2.67,0,0,1,2.63,2.67V28.29a2.94,2.94,0,0,1-2.88,2.92h-30.17a2.94,2.94,0,0,1-2.88-2.92Zm2.88,22.89h30.23a4.93,4.93,0,0,0,4.88-5V10.36a4.66,4.66,0,0,0-4.63-4.71h-6.57l-.19-.7A6,6,0,0,0-375.71.25h-5.76A6,6,0,0,0-387.29,5l-.19.7h-6.38a4.66,4.66,0,0,0-4.63,4.71V28.29A4.93,4.93,0,0,0-393.62,33.25Z"/></clipPath><clipPath id="clip-path-2"><path class="cls-1" d="M-322.44,9.61V23.89h12.67l6.39-14.28Zm-1,15.54a.31.31,0,0,1-.26-.21V8.56a.31.31,0,0,1,.26-.21h29.27c.11,0,.21.09.29.21V24.94c-.09.12-.18.21-.29.21Zm31.55-.21V22.21h1.9a2.65,2.65,0,0,0,2.28-2.52V13.81A2.65,2.65,0,0,0-290,11.29h-1.9V8.56a2.3,2.3,0,0,0-2.28-2.31h-29.27a2.3,2.3,0,0,0-2.28,2.31V24.94a2.3,2.3,0,0,0,2.28,2.31h29.27A2.3,2.3,0,0,0-291.88,24.94Z"/></clipPath><clipPath id="clip-path-3"><rect class="cls-1" x="-222.92" y="-88.18" width="98.5" height="194" rx="13.37" ry="13.37"/></clipPath><clipPath id="clip-path-4"><path class="cls-1" d="M20,16.9a5.41,5.41,0,1,1-5.32,5.4A5.39,5.39,0,0,1,20,16.9Zm0,12.5a7.1,7.1,0,1,0-7-7.1A7,7,0,0,0,20,29.41ZM7.82,16.05a1.1,1.1,0,1,1,2.19,0,1.15,1.15,0,0,1-1.1,1.11A1.08,1.08,0,0,1,7.82,16.05ZM5,14.67a2.22,2.22,0,0,1,2.19-2.23h6.05a.89.89,0,0,0,.83-.64l.26-1.22A3.31,3.31,0,0,1,17.57,8h4.8a3.31,3.31,0,0,1,3.23,2.6l.26,1.22a.85.85,0,0,0,.83.64h6.05a2.22,2.22,0,0,1,2.19,2.23V29.62a2.45,2.45,0,0,1-2.4,2.44H7.4A2.45,2.45,0,0,1,5,29.62ZM7.4,33.75H32.6a4.11,4.11,0,0,0,4.07-4.13V14.67a3.88,3.88,0,0,0-3.86-3.92H27.33l-.16-.58a5,5,0,0,0-4.85-3.92h-4.8a5,5,0,0,0-4.85,3.92l-.16.58H7.19a3.88,3.88,0,0,0-3.86,3.92V29.62A4.11,4.11,0,0,0,7.4,33.75Z"/></clipPath><clipPath id="clip-path-5"><rect class="cls-1" x="-73" y="-1521.42" width="375" height="3193"/></clipPath><clipPath id="clip-path-6"><path class="cls-1" d="M96.72,14V26h10.56L112.6,14ZM95.9,27a.26.26,0,0,1-.22-.17V13.17A.26.26,0,0,1,95.9,13h24.39c.1,0,.17.08.24.17V26.83c-.07.1-.15.17-.24.17Zm26.29-.17V24.55h1.58a2.21,2.21,0,0,0,1.9-2.1v-4.9a2.21,2.21,0,0,0-1.9-2.1h-1.58V13.17a1.91,1.91,0,0,0-1.9-1.92H95.9A1.91,1.91,0,0,0,94,13.17V26.83a1.91,1.91,0,0,0,1.9,1.92h24.39A1.91,1.91,0,0,0,122.19,26.83Z"/></clipPath></defs><g class="cls-5"><g class="cls-6"><rect class="cls-7" x="-1.67" y="1.25" width="43.33" height="37.5"/></g></g></svg>
